<svg xmlns="http://www.w3.org/2000/svg" xmlns:xlink="http://www.w3.org/1999/xlink" width="216" height="419pt" viewBox="0 0 161.62 419"><g id="graph0" class="graph" transform="scale(1 1) rotate(0) translate(4 415)"><title>G</title><polygon fill="#fff" stroke="none" points="-4 4 -4 -415 157.617 -415 157.617 4 -4 4"/><g id="clust1" class="cluster"><title>cluster_Global</title><path fill="none" stroke="gray" d="M20,-8C20,-8 133.617,-8 133.617,-8 139.617,-8 145.617,-14 145.617,-20 145.617,-20 145.617,-391 145.617,-391 145.617,-397 139.617,-403 133.617,-403 133.617,-403 20,-403 20,-403 14,-403 8,-397 8,-391 8,-391 8,-20 8,-20 8,-14 14,-8 20,-8"/><text x="76.809" y="-390.2" fill="gray" font-family="Times,serif" font-size="11" text-anchor="middle">Global</text></g><g id="node1" class="node"><title>\\Anemometer</title><polygon fill="none" stroke="#000" points="117.819 -376 35.798 -376 35.798 -340 117.819 -340 117.819 -376"/><text x="76.809" y="-354.7" font-family="Courier,monospace" font-size="11" text-anchor="middle">Anemometer</text></g><g id="node2" class="node"><title>\\QueryTableParser</title><polygon fill="none" stroke="#000" points="137.426 -322 16.191 -322 16.191 -286 137.426 -286 137.426 -322"/><text x="76.809" y="-300.7" font-family="Courier,monospace" font-size="11" text-anchor="middle">QueryTableParser</text></g><g id="node3" class="node"><title>\\MySQLTableReport</title><polygon fill="none" stroke="#000" points="137.426 -268 16.191 -268 16.191 -232 137.426 -232 137.426 -268"/><text x="76.809" y="-246.7" font-family="Courier,monospace" font-size="11" text-anchor="middle">MySQLTableReport</text></g><g id="node4" class="node"><title>\\QueryRewrite</title><polygon fill="none" stroke="#000" points="124.522 -214 29.096 -214 29.096 -178 124.522 -178 124.522 -214"/><text x="76.809" y="-192.7" font-family="Courier,monospace" font-size="11" text-anchor="middle">QueryRewrite</text></g><g id="node5" class="node"><title>\\AnemometerModel</title><polygon fill="none" stroke="#000" points="134.325 -160 19.293 -160 19.293 -124 134.325 -124 134.325 -160"/><text x="76.809" y="-138.7" font-family="Courier,monospace" font-size="11" text-anchor="middle">AnemometerModel</text></g><g id="node6" class="node"><title>\\Loader</title><polygon fill="none" stroke="#000" points="104.416 -106 49.201 -106 49.201 -70 104.416 -70 104.416 -106"/><text x="76.809" y="-84.7" font-family="Courier,monospace" font-size="11" text-anchor="middle">Loader</text></g><g id="node7" class="node"><title>\\QueryExplain</title><polygon fill="none" stroke="#000" points="124.522 -52 29.096 -52 29.096 -16 124.522 -16 124.522 -52"/><text x="76.809" y="-30.7" font-family="Courier,monospace" font-size="11" text-anchor="middle">QueryExplain</text></g></g></svg>